# xmcd
#
# Track frame offsets:
#	150
#	12843
#	33834
#	49121
#	72978
#	87927
#	101048
#	119870
#	140946
#	161314
#	183231
#
# Disc length: 2601 seconds
#
# Revision: 1
# Processed by: cddbd v1.5.2PL0 Copyright (c) Steve Scherf et al.
# Submitted via: audiograbber 1.83.01
#
DISCID=960a270b
DTITLE=Steve Future - Din S:t Louis Blues
DYEAR=2006
DGENRE=Blues
TTITLE0=Som en sötsak
TTITLE1=Din St Louis Blues
TTITLE2=Flyttgubben
TTITLE3=Thunderbay
TTITLE4=Guds straff
TTITLE5=Ingen början och inget slut
TTITLE6=Bluespäls
TTITLE7=Kudden
TTITLE8=Råttgift
TTITLE9=Problemen
TTITLE10=Rörsvetsar Boogie
EXTD=
EXTT0=
EXTT1=
EXTT2=
EXTT3=
EXTT4=
EXTT5=
EXTT6=
EXTT7=
EXTT8=
EXTT9=
EXTT10=
PLAYORDER=
